<?xml version="1.0" encoding="utf-8"?>
<!-- Svg Vector Icons : http://www.onlinewebfonts.com/icon -->
<!DOCTYPE svg PUBLIC "-//W3C//DTD SVG 1.1//EN" "http://www.w3.org/Graphics/SVG/1.1/DTD/svg11.dtd">
<svg version="1.1" xmlns="http://www.w3.org/2000/svg" xmlns:xlink="http://www.w3.org/1999/xlink" x="0px" y="0px" viewBox="0 0 1000 1000" enable-background="new 0 0 1000 1000" xml:space="preserve">
<metadata> Svg Vector Icons : http://www.onlinewebfonts.com/icon </metadata>
<g><g transform="translate(0.000000,511.000000) scale(0.100000,-0.100000)"><path d="M7596.1,4154.2c-16.5-12.4-28.9-161-28.9-330.3v-301.4H6526.8c-1172.6,0-1449.2-37.1-1891-256c-185.8-86.7-367.5-227.1-578-441.8c-553.3-557.4-701.9-986.8-701.9-2014.9V178.2l693.6,8.3l689.5,12.4l20.6,640c12.4,350.9,37.2,677.1,57.8,722.5c86.7,194.1,256,367.5,454.1,458.3c202.3,95,243.6,99.1,1255.2,99.1h1040.5v-330.3v-330.3H7815h247.7v165.2v165.2l920.7,8.3l916.6,12.4v1011.6v1011.6l-916.6,12.4l-920.7,8.3V4018v165.2h-218.8C7720,4183.1,7608.5,4170.7,7596.1,4154.2z"/><path d="M114.8,4092.3c-12.4-28.9-16.5-974.4-12.4-2097.4L114.8-48.9l693.6-12.4l689.5-8.3v2105.7v2105.7H816.6C308.8,4141.8,127.1,4129.4,114.8,4092.3z"/><path d="M3355.9-1027.4c0-417-20.6-825.8-45.4-916.6c-90.8-334.4-528.5-644.1-908.3-644.1c-173.4,0-520.2,161-644.1,293.1c-214.7,235.3-260.1,425.3-260.1,1123v648.2L808.4-532l-693.6-12.4l-12.4-516.1c-20.6-920.7,90.8-1412.1,433.5-1915.8c433.5-631.7,1139.5-995,1936.4-986.7c1003.3,8.3,1874.5,673,2184.1,1663.9c57.8,177.5,78.4,429.4,90.8,1127.1l20.6,896h-706h-706V-1027.4z"/></g></g>
</svg>