<svg height="256pt" preserveAspectRatio="xMidYMid meet" viewBox="0 0 256 256" width="256pt" xmlns="http://www.w3.org/2000/svg"><g transform="matrix(.1 0 0 -.1 0 256)"><path d="m1664 2430c-254-298-428-576-456-730-44-235 146-500 401-560 68-16 204-16 273 0 254 59 449 335 400 568-17 81-98 243-191 380-84 123-268 357-319 405l-30 29zm105-178c8-15 0-31-42-82-77-97-192-273-240-368-36-74-42-96-46-163-3-67 1-86 22-133 33-72 104-147 167-177 59-28 65-42 13-27-147 40-263 168-280 306-7 64 14 130 79 247 79 140 280 415 305 415 7 0 17-8 22-18z"/><path d="m815 1071c-23-11-98-77-175-155-126-127-137-136-172-136h-38v55 55h-195-195v-425-425h195 194l3 58 3 57 661 5 662 5 163 145c90 80 242 214 339 298 247 216 238 207 250 253 21 76-6 152-67 194-30 20-50 25-100 25h-62l-346-230-346-230h-280-281l-29 29c-35 36-37 61-5 98l24 28 239 5c208 4 243 7 266 23 95 62 88 202-13 261-33 20-53 21-345 24-287 2-313 1-350-17zm-568-597c20-20 24-31 19-57-8-40-23-55-63-63-66-13-108 73-61 123 29 31 72 30 105-3zm-2-229c14-13 25-36 25-50 0-34-42-75-76-75-66 0-96 79-49 125 31 32 69 32 100 0z"/></g></svg>