<?xml version="1.0" encoding="utf-8"?>
<!-- Svg Vector Icons : http://www.onlinewebfonts.com/icon -->
<!DOCTYPE svg PUBLIC "-//W3C//DTD SVG 1.1//EN" "http://www.w3.org/Graphics/SVG/1.1/DTD/svg11.dtd">
<svg version="1.1" xmlns="http://www.w3.org/2000/svg" xmlns:xlink="http://www.w3.org/1999/xlink" x="0px" y="0px" viewBox="0 0 1000 1000" enable-background="new 0 0 1000 1000" xml:space="preserve">
<metadata> Svg Vector Icons : http://www.onlinewebfonts.com/icon </metadata>
<g><g transform="translate(0.000000,511.000000) scale(0.100000,-0.100000)"><path d="M4436.3,4935.5c-786.9-59.4-1497.1-317.8-1782.4-647.1c-145.5-168.5-178-411.6-76.6-583.9c206.8-352.3,798.3-622.2,1594.8-731.3c298.7-40.2,976.4-45.9,1259.7-9.6c1326.7,168.5,2040.8,763.9,1585.2,1319.1c-193.3,235.5-614.5,442.2-1135.3,559C5483.5,4929.8,4878.5,4970,4436.3,4935.5z M5451,4562.2c124.4-15.3,229.7-30.6,233.6-34.5c1.9-1.9-141.7-70.8-321.6-153.2l-327.4-149.3h-235.5l-233.6,1.9l-314,143.6c-172.3,78.5-300.6,147.4-285.3,153.2c61.3,21.1,344.6,55.5,564.8,68.9C4815.4,4610.1,5150.4,4598.6,5451,4562.2z M6431.2,4288.4c197.2-99.6,340.8-218.2,361.8-298.7c32.5-134-84.2-256.5-386.7-404l-212.5-105.3L5824.3,3649l-369.5,170.4l-1.9,107.2l-1.9,105.3l373.3,174.2c204.9,93.8,382.9,172.3,396.3,174.2C6232.1,4382.3,6325.9,4340.1,6431.2,4288.4z M3791.1,4198.5l359.9-164.6l-1.9-107.2l-3.8-109.1l-340.8-157c-187.6-88.1-350.3-158.9-361.8-158.9c-49.8,0-375.2,176.1-453.7,247c-164.6,143.6-164.6,241.2-5.7,382.9c84.2,72.8,371.4,231.7,421.2,231.7C3419.7,4363.1,3593.9,4288.4,3791.1,4198.5z M5334.2,3492c162.7-72.7,287.2-139.8,273.8-145.5c-24.9-13.4-321.6-45.9-580.1-65.1c-180-11.5-748.6,21.1-924.7,53.6l-124.4,23l294.8,135.9l294.8,134H4802l233.6-1.9L5334.2,3492z"/><path d="M8142.7,4497.1c-78.5-21.1-195.3-67-260.4-103.4c-67-36.4-197.2-90-292.9-116.8l-172.3-51.7l38.3-109.1c199.1-562.9-564.8-1123.8-1805.4-1321c-769.6-124.4-1560.3-101.5-2301.2,65.1l-206.8,45.9l-802.2-247c-442.3-137.8-832.8-248.9-869.2-248.9c-231.7,0-549.5-143.6-765.8-346.5c-181.9-170.4-292.9-323.5-404-555.2c-130.2-279.5-201-595.4-201-917c0-817.5,446.1-1543.1,1083.6-1761.3c61.3-21.1,128.3-38.3,153.2-38.3c24.9,0,47.9-5.7,51.7-13.4c5.7-9.6-68.9-122.5-162.7-254.6c-361.8-505.4-681.5-1085.5-802.2-1455c-132.1-402-80.4-899.8,128.3-1246.3c147.4-245.1,461.4-459.5,763.9-524.6c168.5-34.5,252.7-34.5,421.2,0c449.9,95.7,779.2,413.5,913.2,884.5c36.4,124.4,42.1,197.2,42.1,426.9c0,252.7-3.8,291-53.6,440.3c-135.9,409.7-474.8,1012.8-909.4,1613.9c-67,90-74.7,109.1-45.9,109.1c80.4,0,273.8,61.3,417.4,134c111,55.5,991.7,335,3262.3,1033.8c1709.6,526.5,3137.8,957.3,3172.3,957.3c229.7,0,555.2,149.3,767.7,350.3c179.9,170.4,289.1,321.6,396.3,551.4c277.6,585.8,266.1,1309.5-26.8,1893.4c-187.6,375.2-518.8,677.7-861.5,786.9C8627.1,4539.2,8328.4,4546.9,8142.7,4497.1z M1867.1,2008.3c245.1-93.8,471-321.6,616.5-622.2C2613.7,1120,2653.9,928.5,2652,582c0-229.7-7.7-317.8-40.2-434.6c-90-331.2-201-536.1-396.3-733.3c-214.4-216.3-455.6-312.1-727.5-291C848.6-829,364.2-40.2,461.8,794.5c61.3,532.2,300.6,947.7,672,1162.1C1336.8,2073.4,1643.1,2096.4,1867.1,2008.3z"/></g></g>
</svg>