<?xml version="1.0" encoding="iso-8859-1"?>
<!-- Generator: Adobe Illustrator 19.0.0, SVG Export Plug-In . SVG Version: 6.00 Build 0)  -->
<svg version="1.1" id="Layer_1" xmlns="http://www.w3.org/2000/svg" xmlns:xlink="http://www.w3.org/1999/xlink" x="0px" y="0px"
	 viewBox="0 0 512 512" style="enable-background:new 0 0 512 512;" xml:space="preserve">
<path style="fill:#8CE16E;" d="M256,141.241v105.931c73.13,0,132.414,59.284,132.414,132.414h105.931
	C494.345,247.953,387.634,141.241,256,141.241z"/>
<path style="fill:#FF6464;" d="M247.172,123.586h-35.31c-4.875,0-8.828,3.953-8.828,8.828v8.828H8.828v105.931h194.207V256
	c0,4.875,3.953,8.828,8.828,8.828h35.31c4.875,0,8.828-3.953,8.828-8.828V132.414C256,127.539,252.047,123.586,247.172,123.586z"/>
<path style="fill:#7DC86E;" d="M503.172,370.759h-53.188C445.366,267.602,360.297,185.379,256,185.379v61.793
	c70.151,0,127.405,54.591,131.968,123.586h-17.209c-4.879,0-8.828,3.948-8.828,8.828c0,4.879,3.948,8.828,8.828,8.828h132.414
	c4.879,0,8.828-3.948,8.828-8.828C512,374.707,508.052,370.759,503.172,370.759z"/>
<g>
	<path style="fill:#9BF57D;" d="M438.905,300.147c-3.285,0-6.431-1.836-7.957-4.983c-4.25-8.793-9.207-17.327-14.724-25.354
		c-2.759-4.018-1.741-9.517,2.276-12.276c4.018-2.759,9.517-1.741,12.276,2.276c6.017,8.759,11.423,18.069,16.069,27.663
		c2.121,4.388,0.285,9.673-4.104,11.794C441.5,299.862,440.19,300.147,438.905,300.147z"/>
	<path style="fill:#9BF57D;" d="M397.241,242.56c-2.216,0-4.431-0.828-6.138-2.483c-28.043-27.164-63.078-45.06-101.311-51.767
		c-4.802-0.845-8.009-5.422-7.172-10.225c0.845-4.802,5.44-7.975,10.225-7.172c41.725,7.319,79.948,26.854,110.535,56.474
		c3.509,3.396,3.595,8.983,0.207,12.483C401.854,241.664,399.543,242.56,397.241,242.56z"/>
</g>
<g>
	<path style="fill:#8CE16E;" d="M419.991,353.095c-4.07,0-7.733-2.836-8.621-6.974c-1.836-8.534-4.388-16.974-7.604-25.086
		c-1.793-4.534,0.423-9.664,4.957-11.457c4.526-1.784,9.664,0.414,11.457,4.957c3.569,9.017,6.414,18.397,8.448,27.88
		c1.026,4.767-2.008,9.465-6.776,10.483C421.224,353.035,420.604,353.095,419.991,353.095z"/>
	<path style="fill:#8CE16E;" d="M392.785,291.31c-2.759,0-5.483-1.293-7.198-3.706c-16.025-22.517-37.689-40.561-62.664-52.181
		c-4.423-2.051-6.336-7.302-4.276-11.724c2.051-4.414,7.293-6.336,11.724-4.276c27.742,12.897,51.81,32.94,69.594,57.94
		c2.828,3.975,1.897,9.492-2.069,12.31C396.345,290.776,394.552,291.31,392.785,291.31z"/>
</g>
<path style="fill:#FF5050;" d="M247.172,220.69h-35.31c-4.875,0-8.828-3.953-8.828-8.828v-70.621h-17.655v52.966
	c0,4.875-3.953,8.828-8.828,8.828H8.828v44.138h194.207V256c0,4.875,3.953,8.828,8.828,8.828h35.31c4.875,0,8.828-3.953,8.828-8.828
	v-44.138C256,216.737,252.047,220.69,247.172,220.69z"/>
<path style="fill:#959CB5;" d="M8.828,264.828C3.948,264.828,0,260.879,0,256V132.414c0-4.879,3.948-8.828,8.828-8.828
	s8.828,3.948,8.828,8.828V256C17.655,260.879,13.707,264.828,8.828,264.828z"/>
<g>
</g>
<g>
</g>
<g>
</g>
<g>
</g>
<g>
</g>
<g>
</g>
<g>
</g>
<g>
</g>
<g>
</g>
<g>
</g>
<g>
</g>
<g>
</g>
<g>
</g>
<g>
</g>
<g>
</g>
</svg>
