<?xml version="1.0" encoding="utf-8"?>
<!-- Svg Vector Icons : http://www.onlinewebfonts.com/icon -->
<!DOCTYPE svg PUBLIC "-//W3C//DTD SVG 1.1//EN" "http://www.w3.org/Graphics/SVG/1.1/DTD/svg11.dtd">
<svg version="1.1" xmlns="http://www.w3.org/2000/svg" xmlns:xlink="http://www.w3.org/1999/xlink" x="0px" y="0px" viewBox="0 0 1000 1000" enable-background="new 0 0 1000 1000" xml:space="preserve">
<metadata> Svg Vector Icons : http://www.onlinewebfonts.com/icon </metadata>
<g><path d="M436.7,471.1c5.5-86.7-47.8-177.6-146.3-150.2c-72.8,20.3-78.9,112.9-78.9,174.5c0,159.3,0,318.6,0,477.9c6.7-6.7,13.4-13.4,20.1-20.1c-66.8,0-133.6,0-200.4,0c6.7,6.7,13.4,13.4,20.1,20.1c0-185.8,0-371.6,0-557.4c0-63.8,47.5-151.5,98.6-198.7c115.6-106.6,317.4-73.5,397,58.7c41.1,68.2,40.6,135.7,40.6,211.8c0,35.7-5.6,76,21,104.7c42.3,45.7,132.5,44.5,167.9-9.9c14.9-22.9,17-44.6,17-70.6c0-49.6,0-99.2,0-148.8c0-108.8,0-217.7,0-326.5c0-3.4,0-6.8,0-10.2c-6.7,6.7-13.4,13.4-20.1,20.1c65.2,0,130.5,0,195.7,0c-6.7-6.7-13.4-13.4-20.1-20.1c0,172.2,4.9,345.1,0,517.2c-2.7,93.5-58.8,181.9-146,217.5c-130.5,53.3-350.7-2.2-366.3-166.8C432.7,554,436.5,511.8,436.7,471.1c0.1-26-40.1-26-40.2,0c-0.2,42.3-3.7,85.9,0.4,128.1c5.1,53.1,33.9,101.7,71.2,138.7c108.6,107.7,306.5,111.4,423.2,16.7c61.1-49.5,96.5-134.6,98-212.6c1.7-85.9,0-172.1,0-258c0-85.8,0-171.6,0-257.4c0-11-9.1-20.1-20.1-20.1c-65.2,0-130.5,0-195.7,0c-11,0-20.1,9.2-20.1,20.1c0,91.3,0,182.6,0,273.9c0,58.6,0,117.2,0,175.8c0,21.9,2.1,51.2-2.1,66.8c-15.1,56.5-123.4,56.5-123.4-5.8c0-44,2-88.4,0-132.3c-3.6-78.5-40.1-158.5-96.3-212.8C428,92.3,243.6,88.5,133.4,178.8c-69.1,56.6-111.2,144-122.2,232.1c-2.6,21-0.2,43.9-0.2,65c0,57.7,0,115.4,0,173C11,754,11,859,11,964.1c0,3.1,0,6.2,0,9.3c0,11,9.2,20.1,20.1,20.1c66.8,0,133.6,0,200.4,0c11,0,20.1-9.2,20.1-20.1c0-144.9,0-289.8,0-434.6c0-43-3.4-87,8.7-128.7c14.5-49.8,79-77.9,115.3-30c18.6,24.5,22.6,61.2,20.8,91.1C394.8,497,435.1,496.9,436.7,471.1z"/><path d="M898.1,310.3v-98.1h-56.4v98.1H820l50,79.8l50-79.8H898.1z"/><path d="M155.9,670.2v-98.1H99.5v98.1H77.7l50,79.8l50-79.8H155.9z"/><path d="M663.3,728.2h98.1v-56.4h-98.1V650L583.5,700l79.8,50V728.2z"/><path d="M289.5,269.6h98.1v-56.4h-98.1v-21.8l-79.8,50l79.8,50V269.6z"/></g>
</svg>