<?xml version="1.0" encoding="utf-8"?>
<!-- Svg Vector Icons : http://www.onlinewebfonts.com/icon -->
<!DOCTYPE svg PUBLIC "-//W3C//DTD SVG 1.1//EN" "http://www.w3.org/Graphics/SVG/1.1/DTD/svg11.dtd">
<svg version="1.1" xmlns="http://www.w3.org/2000/svg" xmlns:xlink="http://www.w3.org/1999/xlink" x="0px" y="0px" viewBox="0 0 1000 1000" enable-background="new 0 0 1000 1000" xml:space="preserve">
<metadata> Svg Vector Icons : http://www.onlinewebfonts.com/icon </metadata>
<g><g><g><path d="M901.7,496.9V326.5c0-13.4-11-24.3-24.3-24.3h-48.7c-13.4,0-35.3,0-48.7,0c-13.4,0-35.3,0-48.7,0h-89.7c-22.1-37-57.4-65.2-99.6-77.8c11.2-6.2,18.8-18,18.8-31.7c0-20.2-16.4-36.5-36.5-36.5h-12.2v-48.7h109.6c20.2,0,36.5-16.4,36.5-36.5c0-20.2-16.4-36.5-36.5-36.5H512.2c0-13.4-8.1-24.3-24.3-24.3c-16.2,0-24.3,10.9-24.3,24.3H353.9c-20.2,0-36.5,16.4-36.5,36.5c0,20.2,16.4,36.5,36.5,36.5h109.6v48.7h-12.2c-20.2,0-36.5,16.4-36.5,36.5c0,14.9,9,27.8,21.9,33.4c-30.2,10.1-56.7,28.2-77,51.8H171.3v-73c0-26.9-21.8-48.7-48.7-48.7c-26.9,0-48.7,21.8-48.7,48.7v365.2c0,26.9,21.8,48.7,48.7,48.7c26.9,0,48.7-21.8,48.7-48.7v-97.4h166.2c29.2,55.5,87.4,93.3,154.4,93.3c85.3,0,156.1-61.2,171.3-142h68c13.4,0,24.3,11,24.3,24.3v48.7c-13.4,0-24.3,11-24.3,24.3v48.7c0,13.4,11,24.3,24.3,24.3h146.1c13.4,0,24.3-11,24.3-24.3v-48.7C926,507.9,915.1,496.9,901.7,496.9z"/><path d="M722.2,888c0,56.3,45.6,102,102,102c56.3,0,101.9-45.7,101.9-102c0-56.3-102-202.5-102-202.5S722.2,831.7,722.2,888z"/></g></g><g></g><g></g><g></g><g></g><g></g><g></g><g></g><g></g><g></g><g></g><g></g><g></g><g></g><g></g><g></g></g>
</svg>